<?xml version="1.0" encoding="UTF-8" standalone="no"?>
<!DOCTYPE svg PUBLIC "-//W3C//DTD SVG 1.1//EN"
 "http://www.w3.org/Graphics/SVG/1.1/DTD/svg11.dtd">
<!-- Generated by graphviz version 2.43.0 (0)
 -->
<!-- Title: finite_state_machine Pages: 1 -->
<svg width="302pt" height="59pt"
 viewBox="0.00 0.00 302.09 58.70" xmlns="http://www.w3.org/2000/svg" xmlns:xlink="http://www.w3.org/1999/xlink">
<g id="graph0" class="graph" transform="scale(1 1) rotate(0) translate(4 54.7)">
<title>finite_state_machine</title>
<polygon fill="white" stroke="transparent" points="-4,4 -4,-54.7 298.09,-54.7 298.09,4 -4,4"/>
<!-- 204 -->
<g id="node1" class="node">
<title>204</title>
<ellipse fill="none" stroke="black" cx="107.04" cy="-25.35" rx="25.2" ry="25.2"/>
<text text-anchor="middle" x="107.04" y="-21.65" font-family="Helvetica,Arial,sans-serif" font-size="14.00">204</text>
</g>
<!-- 4 -->
<g id="node2" class="node">
<title>4</title>
<ellipse fill="none" stroke="black" cx="194.39" cy="-25.35" rx="18" ry="18"/>
<text text-anchor="middle" x="194.39" y="-21.65" font-family="Helvetica,Arial,sans-serif" font-size="14.00">4</text>
</g>
<!-- 204&#45;&gt;4 -->
<g id="edge1" class="edge">
<title>204&#45;&gt;4</title>
<path fill="none" stroke="black" d="M132.73,-25.35C143.22,-25.35 155.48,-25.35 166.22,-25.35"/>
<polygon fill="black" stroke="black" points="166.34,-28.85 176.34,-25.35 166.34,-21.85 166.34,-28.85"/>
<text text-anchor="middle" x="154.39" y="-29.15" font-family="Helvetica,Arial,sans-serif" font-size="14.00">2</text>
</g>
<!-- &#45;2 -->
<g id="node4" class="node">
<title>&#45;2</title>
<ellipse fill="none" stroke="black" cx="275.24" cy="-25.35" rx="18.7" ry="18.7"/>
<text text-anchor="middle" x="275.24" y="-21.65" font-family="Helvetica,Arial,sans-serif" font-size="14.00">&#45;2</text>
</g>
<!-- 4&#45;&gt;&#45;2 -->
<g id="edge3" class="edge">
<title>4&#45;&gt;&#45;2</title>
<path fill="none" stroke="black" d="M212.5,-25.35C222.32,-25.35 234.89,-25.35 246.12,-25.35"/>
<polygon fill="black" stroke="black" points="246.34,-28.85 256.34,-25.35 246.34,-21.85 246.34,-28.85"/>
<text text-anchor="middle" x="234.39" y="-29.15" font-family="Helvetica,Arial,sans-serif" font-size="14.00">2</text>
</g>
<!-- &#45;1 -->
<g id="node3" class="node">
<title>&#45;1</title>
<ellipse fill="none" stroke="black" cx="18.85" cy="-25.35" rx="18.7" ry="18.7"/>
<text text-anchor="middle" x="18.85" y="-21.65" font-family="Helvetica,Arial,sans-serif" font-size="14.00">&#45;1</text>
</g>
<!-- &#45;1&#45;&gt;204 -->
<g id="edge2" class="edge">
<title>&#45;1&#45;&gt;204</title>
<path fill="none" stroke="black" d="M37.71,-25.35C47.45,-25.35 59.84,-25.35 71.4,-25.35"/>
<polygon fill="black" stroke="black" points="71.67,-28.85 81.67,-25.35 71.67,-21.85 71.67,-28.85"/>
<text text-anchor="middle" x="59.7" y="-29.15" font-family="Helvetica,Arial,sans-serif" font-size="14.00">2</text>
</g>
</g>
</svg>
