<?xml version="1.0" encoding="UTF-8" standalone="no"?>
<!DOCTYPE svg PUBLIC "-//W3C//DTD SVG 1.1//EN"
 "http://www.w3.org/Graphics/SVG/1.1/DTD/svg11.dtd">
<!-- Generated by graphviz version 2.43.0 (0)
 -->
<!-- Title: finite_state_machine Pages: 1 -->
<svg width="437pt" height="445pt"
 viewBox="0.00 0.00 437.09 444.72" xmlns="http://www.w3.org/2000/svg" xmlns:xlink="http://www.w3.org/1999/xlink">
<g id="graph0" class="graph" transform="scale(1 1) rotate(0) translate(4 440.72)">
<title>finite_state_machine</title>
<polygon fill="white" stroke="transparent" points="-4,4 -4,-440.72 433.09,-440.72 433.09,4 -4,4"/>
<!-- 6 -->
<g id="node1" class="node">
<title>6</title>
<ellipse fill="none" stroke="black" cx="329.39" cy="-396.72" rx="18" ry="18"/>
<text text-anchor="middle" x="329.39" y="-393.02" font-family="Helvetica,Arial,sans-serif" font-size="14.00">6</text>
</g>
<!-- &#45;2 -->
<g id="node2" class="node">
<title>&#45;2</title>
<ellipse fill="none" stroke="black" cx="410.24" cy="-244.72" rx="18.7" ry="18.7"/>
<text text-anchor="middle" x="410.24" y="-241.02" font-family="Helvetica,Arial,sans-serif" font-size="14.00">&#45;2</text>
</g>
<!-- 6&#45;&gt;&#45;2 -->
<g id="edge1" class="edge">
<title>6&#45;&gt;&#45;2</title>
<path fill="none" stroke="black" d="M338.53,-381.03C352.08,-354.9 379.39,-302.26 395.82,-270.58"/>
<polygon fill="black" stroke="black" points="399.05,-271.97 400.55,-261.48 392.83,-268.75 399.05,-271.97"/>
<text text-anchor="middle" x="369.39" y="-328.52" font-family="Helvetica,Arial,sans-serif" font-size="14.00">0</text>
</g>
<!-- 4 -->
<g id="node3" class="node">
<title>4</title>
<ellipse fill="none" stroke="black" cx="329.39" cy="-320.72" rx="18" ry="18"/>
<text text-anchor="middle" x="329.39" y="-317.02" font-family="Helvetica,Arial,sans-serif" font-size="14.00">4</text>
</g>
<!-- 4&#45;&gt;&#45;2 -->
<g id="edge2" class="edge">
<title>4&#45;&gt;&#45;2</title>
<path fill="none" stroke="black" d="M343.06,-308.51C355.33,-296.68 374.14,-278.55 388.58,-264.64"/>
<polygon fill="black" stroke="black" points="391.31,-266.87 396.08,-257.41 386.45,-261.83 391.31,-266.87"/>
<text text-anchor="middle" x="369.39" y="-288.52" font-family="Helvetica,Arial,sans-serif" font-size="14.00">6</text>
</g>
<!-- 3 -->
<g id="node4" class="node">
<title>3</title>
<ellipse fill="none" stroke="black" cx="329.39" cy="-54.72" rx="18" ry="18"/>
<text text-anchor="middle" x="329.39" y="-51.02" font-family="Helvetica,Arial,sans-serif" font-size="14.00">3</text>
</g>
<!-- 3&#45;&gt;&#45;2 -->
<g id="edge3" class="edge">
<title>3&#45;&gt;&#45;2</title>
<path fill="none" stroke="black" d="M337.25,-71.25C350.93,-104.21 381.7,-178.36 398.24,-218.2"/>
<polygon fill="black" stroke="black" points="395.05,-219.65 402.11,-227.55 401.51,-216.97 395.05,-219.65"/>
<text text-anchor="middle" x="369.39" y="-158.52" font-family="Helvetica,Arial,sans-serif" font-size="14.00">4</text>
</g>
<!-- 2 -->
<g id="node5" class="node">
<title>2</title>
<ellipse fill="none" stroke="black" cx="329.39" cy="-149.72" rx="18" ry="18"/>
<text text-anchor="middle" x="329.39" y="-146.02" font-family="Helvetica,Arial,sans-serif" font-size="14.00">2</text>
</g>
<!-- 2&#45;&gt;&#45;2 -->
<g id="edge4" class="edge">
<title>2&#45;&gt;&#45;2</title>
<path fill="none" stroke="black" d="M341.69,-163.33C354.54,-178.81 375.71,-204.32 390.93,-222.66"/>
<polygon fill="black" stroke="black" points="388.37,-225.05 397.45,-230.51 393.76,-220.58 388.37,-225.05"/>
<text text-anchor="middle" x="369.39" y="-203.52" font-family="Helvetica,Arial,sans-serif" font-size="14.00">1</text>
</g>
<!-- 1 -->
<g id="node6" class="node">
<title>1</title>
<ellipse fill="none" stroke="black" cx="329.39" cy="-244.72" rx="18" ry="18"/>
<text text-anchor="middle" x="329.39" y="-241.02" font-family="Helvetica,Arial,sans-serif" font-size="14.00">1</text>
</g>
<!-- 1&#45;&gt;&#45;2 -->
<g id="edge5" class="edge">
<title>1&#45;&gt;&#45;2</title>
<path fill="none" stroke="black" d="M347.5,-244.72C357.32,-244.72 369.89,-244.72 381.12,-244.72"/>
<polygon fill="black" stroke="black" points="381.34,-248.22 391.34,-244.72 381.34,-241.22 381.34,-248.22"/>
<text text-anchor="middle" x="369.39" y="-248.52" font-family="Helvetica,Arial,sans-serif" font-size="14.00">7</text>
</g>
<!-- &#45;1 -->
<g id="node7" class="node">
<title>&#45;1</title>
<ellipse fill="none" stroke="black" cx="18.85" cy="-217.72" rx="18.7" ry="18.7"/>
<text text-anchor="middle" x="18.85" y="-214.02" font-family="Helvetica,Arial,sans-serif" font-size="14.00">&#45;1</text>
</g>
<!-- 106 -->
<g id="node8" class="node">
<title>106</title>
<ellipse fill="none" stroke="black" cx="107.04" cy="-328.72" rx="25.2" ry="25.2"/>
<text text-anchor="middle" x="107.04" y="-325.02" font-family="Helvetica,Arial,sans-serif" font-size="14.00">106</text>
</g>
<!-- &#45;1&#45;&gt;106 -->
<g id="edge6" class="edge">
<title>&#45;1&#45;&gt;106</title>
<path fill="none" stroke="black" d="M31.12,-232.23C44.63,-249.64 67.58,-279.19 84.53,-301.01"/>
<polygon fill="black" stroke="black" points="81.8,-303.21 90.7,-308.96 87.33,-298.91 81.8,-303.21"/>
<text text-anchor="middle" x="59.7" y="-276.52" font-family="Helvetica,Arial,sans-serif" font-size="14.00">1</text>
</g>
<!-- 604 -->
<g id="node9" class="node">
<title>604</title>
<ellipse fill="none" stroke="black" cx="107.04" cy="-397.72" rx="25.2" ry="25.2"/>
<text text-anchor="middle" x="107.04" y="-394.02" font-family="Helvetica,Arial,sans-serif" font-size="14.00">604</text>
</g>
<!-- &#45;1&#45;&gt;604 -->
<g id="edge7" class="edge">
<title>&#45;1&#45;&gt;604</title>
<path fill="none" stroke="black" d="M25.99,-235.22C36.03,-263.03 57.31,-318.66 81.7,-362.72 82.92,-364.93 84.25,-367.17 85.64,-369.4"/>
<polygon fill="black" stroke="black" points="82.74,-371.37 91.16,-377.81 88.6,-367.53 82.74,-371.37"/>
<text text-anchor="middle" x="59.7" y="-327.52" font-family="Helvetica,Arial,sans-serif" font-size="14.00">4</text>
</g>
<!-- 301 -->
<g id="node10" class="node">
<title>301</title>
<ellipse fill="none" stroke="black" cx="107.04" cy="-121.72" rx="25.2" ry="25.2"/>
<text text-anchor="middle" x="107.04" y="-118.02" font-family="Helvetica,Arial,sans-serif" font-size="14.00">301</text>
</g>
<!-- &#45;1&#45;&gt;301 -->
<g id="edge8" class="edge">
<title>&#45;1&#45;&gt;301</title>
<path fill="none" stroke="black" d="M32.2,-203.97C45.2,-189.49 65.98,-166.34 82.19,-148.28"/>
<polygon fill="black" stroke="black" points="85.2,-150.17 89.28,-140.4 79.99,-145.5 85.2,-150.17"/>
<text text-anchor="middle" x="59.7" y="-178.52" font-family="Helvetica,Arial,sans-serif" font-size="14.00">2</text>
</g>
<!-- 201 -->
<g id="node11" class="node">
<title>201</title>
<ellipse fill="none" stroke="black" cx="107.04" cy="-190.72" rx="25.2" ry="25.2"/>
<text text-anchor="middle" x="107.04" y="-187.02" font-family="Helvetica,Arial,sans-serif" font-size="14.00">201</text>
</g>
<!-- &#45;1&#45;&gt;201 -->
<g id="edge9" class="edge">
<title>&#45;1&#45;&gt;201</title>
<path fill="none" stroke="black" d="M37.29,-212.26C47.51,-209.05 60.77,-204.9 72.9,-201.1"/>
<polygon fill="black" stroke="black" points="74.25,-204.35 82.74,-198.02 72.15,-197.67 74.25,-204.35"/>
<text text-anchor="middle" x="59.7" y="-209.52" font-family="Helvetica,Arial,sans-serif" font-size="14.00">1</text>
</g>
<!-- 204 -->
<g id="node12" class="node">
<title>204</title>
<ellipse fill="none" stroke="black" cx="107.04" cy="-259.72" rx="25.2" ry="25.2"/>
<text text-anchor="middle" x="107.04" y="-256.02" font-family="Helvetica,Arial,sans-serif" font-size="14.00">204</text>
</g>
<!-- &#45;1&#45;&gt;204 -->
<g id="edge10" class="edge">
<title>&#45;1&#45;&gt;204</title>
<path fill="none" stroke="black" d="M36.06,-225.62C46.97,-230.94 61.71,-238.12 74.84,-244.52"/>
<polygon fill="black" stroke="black" points="73.53,-247.77 84.05,-249 76.59,-241.47 73.53,-247.77"/>
<text text-anchor="middle" x="59.7" y="-242.52" font-family="Helvetica,Arial,sans-serif" font-size="14.00">6</text>
</g>
<!-- 203 -->
<g id="node13" class="node">
<title>203</title>
<ellipse fill="none" stroke="black" cx="107.04" cy="-52.72" rx="25.2" ry="25.2"/>
<text text-anchor="middle" x="107.04" y="-49.02" font-family="Helvetica,Arial,sans-serif" font-size="14.00">203</text>
</g>
<!-- &#45;1&#45;&gt;203 -->
<g id="edge11" class="edge">
<title>&#45;1&#45;&gt;203</title>
<path fill="none" stroke="black" d="M26.99,-200.44C37.71,-175.09 59.11,-126.63 81.7,-87.72 82.96,-85.54 84.33,-83.31 85.74,-81.1"/>
<polygon fill="black" stroke="black" points="88.69,-82.98 91.3,-72.71 82.86,-79.11 88.69,-82.98"/>
<text text-anchor="middle" x="59.7" y="-139.52" font-family="Helvetica,Arial,sans-serif" font-size="14.00">1</text>
</g>
<!-- 106&#45;&gt;6 -->
<g id="edge13" class="edge">
<title>106&#45;&gt;6</title>
<path fill="none" stroke="black" d="M122.14,-349.78C129.45,-358.98 139.19,-368.96 150.39,-374.72 163.53,-381.47 254.96,-390.3 301.42,-394.42"/>
<polygon fill="black" stroke="black" points="301.13,-397.91 311.4,-395.29 301.74,-390.93 301.13,-397.91"/>
<text text-anchor="middle" x="221.89" y="-396.52" font-family="Helvetica,Arial,sans-serif" font-size="14.00">4611686018427387903</text>
</g>
<!-- 106&#45;&gt;1 -->
<g id="edge12" class="edge">
<title>106&#45;&gt;1</title>
<path fill="none" stroke="black" d="M121.15,-307.35C128.47,-297.3 138.52,-286.13 150.39,-279.72 206.81,-249.26 231.78,-278.46 293.39,-260.72 296.83,-259.73 300.37,-258.45 303.81,-257.05"/>
<polygon fill="black" stroke="black" points="305.38,-260.18 313.09,-252.91 302.53,-253.79 305.38,-260.18"/>
<text text-anchor="middle" x="221.89" y="-283.52" font-family="Helvetica,Arial,sans-serif" font-size="14.00">4611686018427387903</text>
</g>
<!-- 604&#45;&gt;6 -->
<g id="edge14" class="edge">
<title>604&#45;&gt;6</title>
<path fill="none" stroke="black" d="M130.96,-407.43C137.16,-409.61 143.94,-411.61 150.39,-412.72 213.03,-423.49 231.29,-426.24 293.39,-412.72 296.89,-411.96 300.46,-410.81 303.92,-409.48"/>
<polygon fill="black" stroke="black" points="305.47,-412.62 313.21,-405.38 302.65,-406.21 305.47,-412.62"/>
<text text-anchor="middle" x="221.89" y="-425.52" font-family="Helvetica,Arial,sans-serif" font-size="14.00">4611686018427387903</text>
</g>
<!-- 604&#45;&gt;4 -->
<g id="edge15" class="edge">
<title>604&#45;&gt;4</title>
<path fill="none" stroke="black" d="M123.29,-377.66C130.58,-369.51 139.98,-360.83 150.39,-355.72 207.94,-327.45 231.78,-354.46 293.39,-336.72 296.83,-335.73 300.37,-334.45 303.81,-333.05"/>
<polygon fill="black" stroke="black" points="305.38,-336.18 313.09,-328.91 302.53,-329.79 305.38,-336.18"/>
<text text-anchor="middle" x="221.89" y="-359.52" font-family="Helvetica,Arial,sans-serif" font-size="14.00">4611686018427387903</text>
</g>
<!-- 301&#45;&gt;3 -->
<g id="edge16" class="edge">
<title>301&#45;&gt;3</title>
<path fill="none" stroke="black" d="M122.49,-101.55C125.82,-96.74 129.29,-91.59 132.39,-86.72 140.95,-73.28 136.61,-63.71 150.39,-55.72 197.97,-28.15 265.4,-38.42 302.1,-47.25"/>
<polygon fill="black" stroke="black" points="301.47,-50.7 312.03,-49.79 303.2,-43.92 301.47,-50.7"/>
<text text-anchor="middle" x="221.89" y="-59.52" font-family="Helvetica,Arial,sans-serif" font-size="14.00">4611686018427387903</text>
</g>
<!-- 301&#45;&gt;1 -->
<g id="edge17" class="edge">
<title>301&#45;&gt;1</title>
<path fill="none" stroke="black" d="M122.33,-141.99C125.67,-146.8 129.18,-151.92 132.39,-156.72 140.62,-169.02 137.9,-176.79 150.39,-184.72 204.52,-219.09 237.07,-173.09 293.39,-203.72 301.02,-207.87 307.72,-214.4 313.16,-221.04"/>
<polygon fill="black" stroke="black" points="310.56,-223.41 319.35,-229.33 316.18,-219.23 310.56,-223.41"/>
<text text-anchor="middle" x="221.89" y="-207.52" font-family="Helvetica,Arial,sans-serif" font-size="14.00">4611686018427387903</text>
</g>
<!-- 201&#45;&gt;2 -->
<g id="edge18" class="edge">
<title>201&#45;&gt;2</title>
<path fill="none" stroke="black" d="M122.34,-170.35C134.21,-153.51 149.31,-132.27 150.39,-131.72 206.94,-102.7 231.62,-116.77 293.39,-131.72 297.13,-132.63 300.92,-134 304.55,-135.6"/>
<polygon fill="black" stroke="black" points="303.17,-138.82 313.68,-140.18 306.31,-132.57 303.17,-138.82"/>
<text text-anchor="middle" x="221.89" y="-135.52" font-family="Helvetica,Arial,sans-serif" font-size="14.00">4611686018427387903</text>
</g>
<!-- 201&#45;&gt;1 -->
<g id="edge19" class="edge">
<title>201&#45;&gt;1</title>
<path fill="none" stroke="black" d="M126.12,-207.7C133.19,-213.39 141.68,-219.19 150.39,-222.72 200.74,-243.12 265.13,-245.93 301.04,-245.66"/>
<polygon fill="black" stroke="black" points="301.28,-249.15 311.22,-245.49 301.17,-242.15 301.28,-249.15"/>
<text text-anchor="middle" x="221.89" y="-248.52" font-family="Helvetica,Arial,sans-serif" font-size="14.00">4611686018427387903</text>
</g>
<!-- 204&#45;&gt;4 -->
<g id="edge21" class="edge">
<title>204&#45;&gt;4</title>
<path fill="none" stroke="black" d="M123.92,-278.8C131.19,-286.25 140.42,-294.1 150.39,-298.72 176.57,-310.84 258.11,-316.94 301.15,-319.39"/>
<polygon fill="black" stroke="black" points="301.03,-322.88 311.21,-319.93 301.41,-315.89 301.03,-322.88"/>
<text text-anchor="middle" x="221.89" y="-322.52" font-family="Helvetica,Arial,sans-serif" font-size="14.00">4611686018427387903</text>
</g>
<!-- 204&#45;&gt;2 -->
<g id="edge20" class="edge">
<title>204&#45;&gt;2</title>
<path fill="none" stroke="black" d="M123.26,-239.98C126.55,-235.16 129.82,-229.89 132.39,-224.72 143.86,-201.7 130.44,-185.96 150.39,-169.72 172.9,-151.4 257.18,-149.16 301.21,-149.29"/>
<polygon fill="black" stroke="black" points="301.2,-152.79 311.22,-149.37 301.25,-145.79 301.2,-152.79"/>
<text text-anchor="middle" x="221.89" y="-173.52" font-family="Helvetica,Arial,sans-serif" font-size="14.00">4611686018427387903</text>
</g>
<!-- 203&#45;&gt;3 -->
<g id="edge23" class="edge">
<title>203&#45;&gt;3</title>
<path fill="none" stroke="black" d="M124.82,-34.28C131.98,-27.73 140.88,-21.14 150.39,-17.72 210.2,3.8 235.02,7.41 293.39,-17.72 300.65,-20.85 307.11,-26.3 312.44,-32.07"/>
<polygon fill="black" stroke="black" points="309.9,-34.49 318.98,-39.96 315.29,-30.03 309.9,-34.49"/>
<text text-anchor="middle" x="221.89" y="-21.52" font-family="Helvetica,Arial,sans-serif" font-size="14.00">4611686018427387903</text>
</g>
<!-- 203&#45;&gt;2 -->
<g id="edge22" class="edge">
<title>203&#45;&gt;2</title>
<path fill="none" stroke="black" d="M130.55,-63.41C136.86,-66.1 143.8,-68.77 150.39,-70.72 212.26,-89.01 239.58,-60.12 293.39,-95.72 303.74,-102.56 311.69,-113.63 317.38,-123.96"/>
<polygon fill="black" stroke="black" points="314.36,-125.74 321.98,-133.11 320.62,-122.6 314.36,-125.74"/>
<text text-anchor="middle" x="221.89" y="-99.52" font-family="Helvetica,Arial,sans-serif" font-size="14.00">4611686018427387903</text>
</g>
</g>
</svg>
