<?xml version="1.0" encoding="UTF-8" standalone="no"?>
<!DOCTYPE svg PUBLIC "-//W3C//DTD SVG 1.1//EN"
 "http://www.w3.org/Graphics/SVG/1.1/DTD/svg11.dtd">
<!-- Generated by graphviz version 2.43.0 (0)
 -->
<!-- Title: finite_state_machine Pages: 1 -->
<svg width="302pt" height="404pt"
 viewBox="0.00 0.00 302.09 403.70" xmlns="http://www.w3.org/2000/svg" xmlns:xlink="http://www.w3.org/1999/xlink">
<g id="graph0" class="graph" transform="scale(1 1) rotate(0) translate(4 399.7)">
<title>finite_state_machine</title>
<polygon fill="white" stroke="transparent" points="-4,4 -4,-399.7 298.09,-399.7 298.09,4 -4,4"/>
<!-- 203 -->
<g id="node1" class="node">
<title>203</title>
<ellipse fill="none" stroke="black" cx="107.04" cy="-370.35" rx="25.2" ry="25.2"/>
<text text-anchor="middle" x="107.04" y="-366.65" font-family="Helvetica,Arial,sans-serif" font-size="14.00">203</text>
</g>
<!-- 3 -->
<g id="node2" class="node">
<title>3</title>
<ellipse fill="none" stroke="black" cx="194.39" cy="-366.35" rx="18" ry="18"/>
<text text-anchor="middle" x="194.39" y="-362.65" font-family="Helvetica,Arial,sans-serif" font-size="14.00">3</text>
</g>
<!-- 203&#45;&gt;3 -->
<g id="edge1" class="edge">
<title>203&#45;&gt;3</title>
<path fill="none" stroke="black" d="M132.73,-369.19C143.22,-368.7 155.48,-368.12 166.22,-367.62"/>
<polygon fill="black" stroke="black" points="166.51,-371.11 176.34,-367.15 166.18,-364.12 166.51,-371.11"/>
<text text-anchor="middle" x="154.39" y="-372.15" font-family="Helvetica,Arial,sans-serif" font-size="14.00">1</text>
</g>
<!-- &#45;2 -->
<g id="node12" class="node">
<title>&#45;2</title>
<ellipse fill="none" stroke="black" cx="275.24" cy="-277.35" rx="18.7" ry="18.7"/>
<text text-anchor="middle" x="275.24" y="-273.65" font-family="Helvetica,Arial,sans-serif" font-size="14.00">&#45;2</text>
</g>
<!-- 3&#45;&gt;&#45;2 -->
<g id="edge16" class="edge">
<title>3&#45;&gt;&#45;2</title>
<path fill="none" stroke="black" d="M207.03,-353.22C219.69,-338.92 240.14,-315.84 255.16,-298.89"/>
<polygon fill="black" stroke="black" points="258.03,-300.93 262.04,-291.12 252.79,-296.28 258.03,-300.93"/>
<text text-anchor="middle" x="234.39" y="-328.15" font-family="Helvetica,Arial,sans-serif" font-size="14.00">1</text>
</g>
<!-- 204 -->
<g id="node3" class="node">
<title>204</title>
<ellipse fill="none" stroke="black" cx="107.04" cy="-301.35" rx="25.2" ry="25.2"/>
<text text-anchor="middle" x="107.04" y="-297.65" font-family="Helvetica,Arial,sans-serif" font-size="14.00">204</text>
</g>
<!-- 4 -->
<g id="node4" class="node">
<title>4</title>
<ellipse fill="none" stroke="black" cx="194.39" cy="-254.35" rx="18" ry="18"/>
<text text-anchor="middle" x="194.39" y="-250.65" font-family="Helvetica,Arial,sans-serif" font-size="14.00">4</text>
</g>
<!-- 204&#45;&gt;4 -->
<g id="edge2" class="edge">
<title>204&#45;&gt;4</title>
<path fill="none" stroke="black" d="M129.58,-289.49C141.7,-282.81 156.86,-274.46 169.37,-267.58"/>
<polygon fill="black" stroke="black" points="171.25,-270.54 178.32,-262.65 167.87,-264.41 171.25,-270.54"/>
<text text-anchor="middle" x="154.39" y="-282.15" font-family="Helvetica,Arial,sans-serif" font-size="14.00">5</text>
</g>
<!-- 2 -->
<g id="node5" class="node">
<title>2</title>
<ellipse fill="none" stroke="black" cx="194.39" cy="-308.35" rx="18" ry="18"/>
<text text-anchor="middle" x="194.39" y="-304.65" font-family="Helvetica,Arial,sans-serif" font-size="14.00">2</text>
</g>
<!-- 204&#45;&gt;2 -->
<g id="edge3" class="edge">
<title>204&#45;&gt;2</title>
<path fill="none" stroke="black" d="M132.73,-303.37C143.22,-304.23 155.48,-305.24 166.22,-306.12"/>
<polygon fill="black" stroke="black" points="166.08,-309.62 176.34,-306.95 166.66,-302.64 166.08,-309.62"/>
<text text-anchor="middle" x="154.39" y="-309.15" font-family="Helvetica,Arial,sans-serif" font-size="14.00">1</text>
</g>
<!-- 4&#45;&gt;&#45;2 -->
<g id="edge17" class="edge">
<title>4&#45;&gt;&#45;2</title>
<path fill="none" stroke="black" d="M212.11,-259.23C222.32,-262.2 235.61,-266.08 247.28,-269.48"/>
<polygon fill="black" stroke="black" points="246.42,-272.88 257,-272.32 248.38,-266.16 246.42,-272.88"/>
<text text-anchor="middle" x="234.39" y="-271.15" font-family="Helvetica,Arial,sans-serif" font-size="14.00">6</text>
</g>
<!-- 2&#45;&gt;&#45;2 -->
<g id="edge15" class="edge">
<title>2&#45;&gt;&#45;2</title>
<path fill="none" stroke="black" d="M211.35,-302.07C221.82,-297.96 235.78,-292.47 247.88,-287.71"/>
<polygon fill="black" stroke="black" points="249.47,-290.85 257.49,-283.93 246.9,-284.33 249.47,-290.85"/>
<text text-anchor="middle" x="234.39" y="-297.15" font-family="Helvetica,Arial,sans-serif" font-size="14.00">1</text>
</g>
<!-- 201 -->
<g id="node6" class="node">
<title>201</title>
<ellipse fill="none" stroke="black" cx="107.04" cy="-163.35" rx="25.2" ry="25.2"/>
<text text-anchor="middle" x="107.04" y="-159.65" font-family="Helvetica,Arial,sans-serif" font-size="14.00">201</text>
</g>
<!-- 1 -->
<g id="node7" class="node">
<title>1</title>
<ellipse fill="none" stroke="black" cx="194.39" cy="-121.35" rx="18" ry="18"/>
<text text-anchor="middle" x="194.39" y="-117.65" font-family="Helvetica,Arial,sans-serif" font-size="14.00">1</text>
</g>
<!-- 201&#45;&gt;1 -->
<g id="edge4" class="edge">
<title>201&#45;&gt;1</title>
<path fill="none" stroke="black" d="M130.02,-152.53C141.87,-146.7 156.53,-139.49 168.76,-133.47"/>
<polygon fill="black" stroke="black" points="170.52,-136.5 177.95,-128.95 167.43,-130.22 170.52,-136.5"/>
<text text-anchor="middle" x="154.39" y="-146.15" font-family="Helvetica,Arial,sans-serif" font-size="14.00">1</text>
</g>
<!-- 1&#45;&gt;&#45;2 -->
<g id="edge14" class="edge">
<title>1&#45;&gt;&#45;2</title>
<path fill="none" stroke="black" d="M203.39,-137.16C217,-164.1 244.8,-219.09 261.24,-251.62"/>
<polygon fill="black" stroke="black" points="258.11,-253.2 265.75,-260.55 264.36,-250.04 258.11,-253.2"/>
<text text-anchor="middle" x="234.39" y="-208.15" font-family="Helvetica,Arial,sans-serif" font-size="14.00">4</text>
</g>
<!-- 301 -->
<g id="node8" class="node">
<title>301</title>
<ellipse fill="none" stroke="black" cx="107.04" cy="-94.35" rx="25.2" ry="25.2"/>
<text text-anchor="middle" x="107.04" y="-90.65" font-family="Helvetica,Arial,sans-serif" font-size="14.00">301</text>
</g>
<!-- 301&#45;&gt;1 -->
<g id="edge5" class="edge">
<title>301&#45;&gt;1</title>
<path fill="none" stroke="black" d="M131.37,-101.73C142.48,-105.24 155.81,-109.46 167.26,-113.08"/>
<polygon fill="black" stroke="black" points="166.54,-116.52 177.13,-116.2 168.65,-109.85 166.54,-116.52"/>
<text text-anchor="middle" x="154.39" y="-114.15" font-family="Helvetica,Arial,sans-serif" font-size="14.00">2</text>
</g>
<!-- 604 -->
<g id="node9" class="node">
<title>604</title>
<ellipse fill="none" stroke="black" cx="107.04" cy="-232.35" rx="25.2" ry="25.2"/>
<text text-anchor="middle" x="107.04" y="-228.65" font-family="Helvetica,Arial,sans-serif" font-size="14.00">604</text>
</g>
<!-- 604&#45;&gt;4 -->
<g id="edge6" class="edge">
<title>604&#45;&gt;4</title>
<path fill="none" stroke="black" d="M132.5,-230.31C140.85,-230.28 150.16,-230.98 158.39,-233.35 162.61,-234.56 166.83,-236.41 170.81,-238.53"/>
<polygon fill="black" stroke="black" points="169.16,-241.62 179.53,-243.75 172.75,-235.61 169.16,-241.62"/>
<text text-anchor="middle" x="154.39" y="-237.15" font-family="Helvetica,Arial,sans-serif" font-size="14.00">1</text>
</g>
<!-- 106 -->
<g id="node10" class="node">
<title>106</title>
<ellipse fill="none" stroke="black" cx="107.04" cy="-25.35" rx="25.2" ry="25.2"/>
<text text-anchor="middle" x="107.04" y="-21.65" font-family="Helvetica,Arial,sans-serif" font-size="14.00">106</text>
</g>
<!-- 106&#45;&gt;1 -->
<g id="edge7" class="edge">
<title>106&#45;&gt;1</title>
<path fill="none" stroke="black" d="M124.5,-43.86C138.9,-60.06 159.81,-83.58 174.81,-100.45"/>
<polygon fill="black" stroke="black" points="172.39,-102.99 181.65,-108.14 177.62,-98.34 172.39,-102.99"/>
<text text-anchor="middle" x="154.39" y="-86.15" font-family="Helvetica,Arial,sans-serif" font-size="14.00">1</text>
</g>
<!-- &#45;1 -->
<g id="node11" class="node">
<title>&#45;1</title>
<ellipse fill="none" stroke="black" cx="18.85" cy="-190.35" rx="18.7" ry="18.7"/>
<text text-anchor="middle" x="18.85" y="-186.65" font-family="Helvetica,Arial,sans-serif" font-size="14.00">&#45;1</text>
</g>
<!-- &#45;1&#45;&gt;203 -->
<g id="edge8" class="edge">
<title>&#45;1&#45;&gt;203</title>
<path fill="none" stroke="black" d="M25.99,-207.85C36.03,-235.66 57.31,-291.29 81.7,-335.35 82.92,-337.56 84.25,-339.8 85.64,-342.03"/>
<polygon fill="black" stroke="black" points="82.74,-344 91.16,-350.44 88.6,-340.16 82.74,-344"/>
<text text-anchor="middle" x="59.7" y="-300.15" font-family="Helvetica,Arial,sans-serif" font-size="14.00">1</text>
</g>
<!-- &#45;1&#45;&gt;204 -->
<g id="edge9" class="edge">
<title>&#45;1&#45;&gt;204</title>
<path fill="none" stroke="black" d="M31.12,-204.86C44.63,-222.26 67.58,-251.82 84.53,-273.64"/>
<polygon fill="black" stroke="black" points="81.8,-275.84 90.7,-281.59 87.33,-271.54 81.8,-275.84"/>
<text text-anchor="middle" x="59.7" y="-250.15" font-family="Helvetica,Arial,sans-serif" font-size="14.00">6</text>
</g>
<!-- &#45;1&#45;&gt;201 -->
<g id="edge10" class="edge">
<title>&#45;1&#45;&gt;201</title>
<path fill="none" stroke="black" d="M37.29,-184.88C47.51,-181.68 60.77,-177.53 72.9,-173.73"/>
<polygon fill="black" stroke="black" points="74.25,-176.98 82.74,-170.65 72.15,-170.3 74.25,-176.98"/>
<text text-anchor="middle" x="59.7" y="-183.15" font-family="Helvetica,Arial,sans-serif" font-size="14.00">1</text>
</g>
<!-- &#45;1&#45;&gt;301 -->
<g id="edge11" class="edge">
<title>&#45;1&#45;&gt;301</title>
<path fill="none" stroke="black" d="M32.2,-176.59C45.2,-162.12 65.98,-138.97 82.19,-120.91"/>
<polygon fill="black" stroke="black" points="85.2,-122.8 89.28,-113.02 79.99,-118.13 85.2,-122.8"/>
<text text-anchor="middle" x="59.7" y="-152.15" font-family="Helvetica,Arial,sans-serif" font-size="14.00">2</text>
</g>
<!-- &#45;1&#45;&gt;604 -->
<g id="edge12" class="edge">
<title>&#45;1&#45;&gt;604</title>
<path fill="none" stroke="black" d="M36.06,-198.25C46.97,-203.56 61.71,-210.74 74.84,-217.14"/>
<polygon fill="black" stroke="black" points="73.53,-220.4 84.05,-221.63 76.59,-214.1 73.53,-220.4"/>
<text text-anchor="middle" x="59.7" y="-215.15" font-family="Helvetica,Arial,sans-serif" font-size="14.00">1</text>
</g>
<!-- &#45;1&#45;&gt;106 -->
<g id="edge13" class="edge">
<title>&#45;1&#45;&gt;106</title>
<path fill="none" stroke="black" d="M26.99,-173.07C37.71,-147.72 59.11,-99.26 81.7,-60.35 82.96,-58.16 84.33,-55.94 85.74,-53.72"/>
<polygon fill="black" stroke="black" points="88.69,-55.61 91.3,-45.34 82.86,-51.73 88.69,-55.61"/>
<text text-anchor="middle" x="59.7" y="-113.15" font-family="Helvetica,Arial,sans-serif" font-size="14.00">1</text>
</g>
</g>
</svg>
