<?xml version="1.0" encoding="UTF-8" standalone="no"?>
<!DOCTYPE svg PUBLIC "-//W3C//DTD SVG 1.1//EN"
 "http://www.w3.org/Graphics/SVG/1.1/DTD/svg11.dtd">
<!-- Generated by graphviz version 2.43.0 (0)
 -->
<!-- Title: finite_state_machine Pages: 1 -->
<svg width="730pt" height="159pt"
 viewBox="0.00 0.00 730.00 159.00" xmlns="http://www.w3.org/2000/svg" xmlns:xlink="http://www.w3.org/1999/xlink">
<g id="graph0" class="graph" transform="scale(1 1) rotate(0) translate(4 155)">
<title>finite_state_machine</title>
<polygon fill="white" stroke="transparent" points="-4,4 -4,-155 726,-155 726,4 -4,4"/>
<!-- 2 -->
<g id="node1" class="node">
<title>2</title>
<ellipse fill="none" stroke="black" cx="514" cy="-123" rx="18" ry="18"/>
<text text-anchor="middle" x="514" y="-119.3" font-family="Helvetica,Arial,sans-serif" font-size="14.00">2</text>
</g>
<!-- 4 -->
<g id="node2" class="node">
<title>4</title>
<ellipse fill="none" stroke="black" cx="609" cy="-120" rx="18" ry="18"/>
<text text-anchor="middle" x="609" y="-116.3" font-family="Helvetica,Arial,sans-serif" font-size="14.00">4</text>
</g>
<!-- 2&#45;&gt;4 -->
<g id="edge1" class="edge">
<title>2&#45;&gt;4</title>
<path fill="none" stroke="black" d="M532.06,-122.45C545.61,-122.01 564.82,-121.39 580.53,-120.89"/>
<polygon fill="black" stroke="black" points="580.85,-124.38 590.74,-120.56 580.63,-117.38 580.85,-124.38"/>
<text text-anchor="middle" x="561.5" y="-124.8" font-family="Helvetica,Arial,sans-serif" font-size="14.00">766</text>
</g>
<!-- 9 -->
<g id="node9" class="node">
<title>9</title>
<ellipse fill="none" stroke="black" cx="704" cy="-72" rx="18" ry="18"/>
<text text-anchor="middle" x="704" y="-68.3" font-family="Helvetica,Arial,sans-serif" font-size="14.00">9</text>
</g>
<!-- 4&#45;&gt;9 -->
<g id="edge9" class="edge">
<title>4&#45;&gt;9</title>
<path fill="none" stroke="black" d="M625.36,-112.07C639.76,-104.64 661.54,-93.4 678.38,-84.71"/>
<polygon fill="black" stroke="black" points="680.34,-87.63 687.62,-79.94 677.13,-81.41 680.34,-87.63"/>
<text text-anchor="middle" x="656.5" y="-104.8" font-family="Helvetica,Arial,sans-serif" font-size="14.00">766</text>
</g>
<!-- 5 -->
<g id="node3" class="node">
<title>5</title>
<ellipse fill="none" stroke="black" cx="419" cy="-123" rx="18" ry="18"/>
<text text-anchor="middle" x="419" y="-119.3" font-family="Helvetica,Arial,sans-serif" font-size="14.00">5</text>
</g>
<!-- 5&#45;&gt;2 -->
<g id="edge2" class="edge">
<title>5&#45;&gt;2</title>
<path fill="none" stroke="black" d="M437.06,-123C450.61,-123 469.82,-123 485.53,-123"/>
<polygon fill="black" stroke="black" points="485.74,-126.5 495.74,-123 485.74,-119.5 485.74,-126.5"/>
<text text-anchor="middle" x="466.5" y="-126.8" font-family="Helvetica,Arial,sans-serif" font-size="14.00">766</text>
</g>
<!-- 0 -->
<g id="node4" class="node">
<title>0</title>
<ellipse fill="none" stroke="black" cx="18" cy="-111" rx="18" ry="18"/>
<text text-anchor="middle" x="18" y="-107.3" font-family="Helvetica,Arial,sans-serif" font-size="14.00">0</text>
</g>
<!-- 0&#45;&gt;5 -->
<g id="edge3" class="edge">
<title>0&#45;&gt;5</title>
<path fill="none" stroke="black" d="M35.14,-117.57C54.83,-124.98 89.29,-136 120,-136 120,-136 120,-136 312,-136 339.12,-136 369.86,-131.76 391.22,-128.12"/>
<polygon fill="black" stroke="black" points="391.95,-131.54 401.19,-126.35 390.73,-124.65 391.95,-131.54"/>
<text text-anchor="middle" x="216" y="-139.8" font-family="Helvetica,Arial,sans-serif" font-size="14.00">343</text>
</g>
<!-- 7 -->
<g id="node5" class="node">
<title>7</title>
<ellipse fill="none" stroke="black" cx="121" cy="-85" rx="18" ry="18"/>
<text text-anchor="middle" x="121" y="-81.3" font-family="Helvetica,Arial,sans-serif" font-size="14.00">7</text>
</g>
<!-- 0&#45;&gt;7 -->
<g id="edge4" class="edge">
<title>0&#45;&gt;7</title>
<path fill="none" stroke="black" d="M35.68,-106.71C51.39,-102.66 75.2,-96.53 93.51,-91.82"/>
<polygon fill="black" stroke="black" points="94.49,-95.18 103.3,-89.3 92.74,-88.4 94.49,-95.18"/>
<text text-anchor="middle" x="69.5" y="-104.8" font-family="Helvetica,Arial,sans-serif" font-size="14.00">1380</text>
</g>
<!-- 6 -->
<g id="node6" class="node">
<title>6</title>
<ellipse fill="none" stroke="black" cx="216" cy="-31" rx="18" ry="18"/>
<text text-anchor="middle" x="216" y="-27.3" font-family="Helvetica,Arial,sans-serif" font-size="14.00">6</text>
</g>
<!-- 7&#45;&gt;6 -->
<g id="edge8" class="edge">
<title>7&#45;&gt;6</title>
<path fill="none" stroke="black" d="M134.62,-73.04C141,-67.4 149.06,-60.86 157,-56 167.06,-49.84 178.91,-44.44 189.27,-40.25"/>
<polygon fill="black" stroke="black" points="190.58,-43.5 198.64,-36.62 188.05,-36.97 190.58,-43.5"/>
<text text-anchor="middle" x="168.5" y="-59.8" font-family="Helvetica,Arial,sans-serif" font-size="14.00">569</text>
</g>
<!-- 1 -->
<g id="node7" class="node">
<title>1</title>
<ellipse fill="none" stroke="black" cx="311" cy="-79" rx="18" ry="18"/>
<text text-anchor="middle" x="311" y="-75.3" font-family="Helvetica,Arial,sans-serif" font-size="14.00">1</text>
</g>
<!-- 7&#45;&gt;1 -->
<g id="edge7" class="edge">
<title>7&#45;&gt;1</title>
<path fill="none" stroke="black" d="M139.02,-84.46C171.65,-83.42 243.29,-81.13 282.69,-79.87"/>
<polygon fill="black" stroke="black" points="283,-83.36 292.89,-79.55 282.78,-76.37 283,-83.36"/>
<text text-anchor="middle" x="216" y="-85.8" font-family="Helvetica,Arial,sans-serif" font-size="14.00">811</text>
</g>
<!-- 6&#45;&gt;1 -->
<g id="edge5" class="edge">
<title>6&#45;&gt;1</title>
<path fill="none" stroke="black" d="M233.11,-37.06C244.95,-41.73 261.29,-48.61 275,-56 279.07,-58.19 283.28,-60.72 287.3,-63.27"/>
<polygon fill="black" stroke="black" points="285.42,-66.22 295.7,-68.79 289.27,-60.37 285.42,-66.22"/>
<text text-anchor="middle" x="263.5" y="-59.8" font-family="Helvetica,Arial,sans-serif" font-size="14.00">136</text>
</g>
<!-- 3 -->
<g id="node8" class="node">
<title>3</title>
<ellipse fill="none" stroke="black" cx="365" cy="-18" rx="18" ry="18"/>
<text text-anchor="middle" x="365" y="-14.3" font-family="Helvetica,Arial,sans-serif" font-size="14.00">3</text>
</g>
<!-- 6&#45;&gt;3 -->
<g id="edge6" class="edge">
<title>6&#45;&gt;3</title>
<path fill="none" stroke="black" d="M234.06,-28.32C239.75,-27.49 246.14,-26.63 252,-26 280.82,-22.92 313.94,-20.72 336.64,-19.41"/>
<polygon fill="black" stroke="black" points="337.1,-22.89 346.89,-18.85 336.71,-15.9 337.1,-22.89"/>
<text text-anchor="middle" x="263.5" y="-29.8" font-family="Helvetica,Arial,sans-serif" font-size="14.00">433</text>
</g>
<!-- 1&#45;&gt;5 -->
<g id="edge11" class="edge">
<title>1&#45;&gt;5</title>
<path fill="none" stroke="black" d="M328.17,-85.1C342.63,-90.61 364.34,-99.06 383,-107 386.3,-108.4 389.75,-109.92 393.14,-111.44"/>
<polygon fill="black" stroke="black" points="391.85,-114.7 402.4,-115.65 394.75,-108.32 391.85,-114.7"/>
<text text-anchor="middle" x="365" y="-110.8" font-family="Helvetica,Arial,sans-serif" font-size="14.00">423</text>
</g>
<!-- 1&#45;&gt;9 -->
<g id="edge12" class="edge">
<title>1&#45;&gt;9</title>
<path fill="none" stroke="black" d="M329.24,-77.16C350.19,-75.09 386.65,-72 418,-72 418,-72 418,-72 610,-72 632.13,-72 657.23,-72 675.77,-72"/>
<polygon fill="black" stroke="black" points="675.86,-75.5 685.86,-72 675.86,-68.5 675.86,-75.5"/>
<text text-anchor="middle" x="514" y="-75.8" font-family="Helvetica,Arial,sans-serif" font-size="14.00">524</text>
</g>
<!-- 3&#45;&gt;9 -->
<g id="edge10" class="edge">
<title>3&#45;&gt;9</title>
<path fill="none" stroke="black" d="M383.25,-18.56C403.1,-19.15 436.65,-20 465.5,-20 465.5,-20 465.5,-20 610,-20 637.82,-20 665.05,-37.95 682.78,-52.75"/>
<polygon fill="black" stroke="black" points="680.85,-55.72 690.68,-59.68 685.47,-50.45 680.85,-55.72"/>
<text text-anchor="middle" x="514" y="-23.8" font-family="Helvetica,Arial,sans-serif" font-size="14.00">433</text>
</g>
</g>
</svg>
