<?xml version="1.0" encoding="UTF-8" standalone="no"?>
<!DOCTYPE svg PUBLIC "-//W3C//DTD SVG 1.1//EN"
 "http://www.w3.org/Graphics/SVG/1.1/DTD/svg11.dtd">
<!-- Generated by graphviz version 2.43.0 (0)
 -->
<!-- Title: finite_state_machine Pages: 1 -->
<svg width="483pt" height="188pt"
 viewBox="0.00 0.00 483.00 188.00" xmlns="http://www.w3.org/2000/svg" xmlns:xlink="http://www.w3.org/1999/xlink">
<g id="graph0" class="graph" transform="scale(1 1) rotate(0) translate(4 184)">
<title>finite_state_machine</title>
<polygon fill="white" stroke="transparent" points="-4,4 -4,-184 479,-184 479,4 -4,4"/>
<!-- 4 -->
<g id="node1" class="node">
<title>4</title>
<ellipse fill="none" stroke="black" cx="369" cy="-98" rx="18" ry="18"/>
<text text-anchor="middle" x="369" y="-94.3" font-family="Helvetica,Arial,sans-serif" font-size="14.00">4</text>
</g>
<!-- 5 -->
<g id="node2" class="node">
<title>5</title>
<ellipse fill="none" stroke="black" cx="457" cy="-142" rx="18" ry="18"/>
<text text-anchor="middle" x="457" y="-138.3" font-family="Helvetica,Arial,sans-serif" font-size="14.00">5</text>
</g>
<!-- 4&#45;&gt;5 -->
<g id="edge1" class="edge">
<title>4&#45;&gt;5</title>
<path fill="none" stroke="black" d="M385.38,-105.87C398.22,-112.44 416.76,-121.92 431.62,-129.53"/>
<polygon fill="black" stroke="black" points="430.26,-132.76 440.76,-134.2 433.45,-126.53 430.26,-132.76"/>
<text text-anchor="middle" x="413" y="-126.8" font-family="Helvetica,Arial,sans-serif" font-size="14.00">14</text>
</g>
<!-- 2 -->
<g id="node3" class="node">
<title>2</title>
<ellipse fill="none" stroke="black" cx="281" cy="-22" rx="18" ry="18"/>
<text text-anchor="middle" x="281" y="-18.3" font-family="Helvetica,Arial,sans-serif" font-size="14.00">2</text>
</g>
<!-- 2&#45;&gt;4 -->
<g id="edge2" class="edge">
<title>2&#45;&gt;4</title>
<path fill="none" stroke="black" d="M298.42,-27.55C309.09,-31.72 322.85,-38.23 333,-47 341.53,-54.37 348.95,-64.28 354.74,-73.4"/>
<polygon fill="black" stroke="black" points="351.83,-75.34 359.96,-82.13 357.83,-71.75 351.83,-75.34"/>
<text text-anchor="middle" x="325" y="-50.8" font-family="Helvetica,Arial,sans-serif" font-size="14.00">12</text>
</g>
<!-- 0 -->
<g id="node4" class="node">
<title>0</title>
<ellipse fill="none" stroke="black" cx="18" cy="-18" rx="18" ry="18"/>
<text text-anchor="middle" x="18" y="-14.3" font-family="Helvetica,Arial,sans-serif" font-size="14.00">0</text>
</g>
<!-- 0&#45;&gt;2 -->
<g id="edge5" class="edge">
<title>0&#45;&gt;2</title>
<path fill="none" stroke="black" d="M36.09,-17.33C63.35,-16.35 118.37,-14.78 165,-16 195.02,-16.78 229.4,-18.71 252.7,-20.17"/>
<polygon fill="black" stroke="black" points="252.66,-23.68 262.87,-20.83 253.11,-16.69 252.66,-23.68"/>
<text text-anchor="middle" x="149.5" y="-19.8" font-family="Helvetica,Arial,sans-serif" font-size="14.00">8</text>
</g>
<!-- 1 -->
<g id="node5" class="node">
<title>1</title>
<ellipse fill="none" stroke="black" cx="98" cy="-89" rx="18" ry="18"/>
<text text-anchor="middle" x="98" y="-85.3" font-family="Helvetica,Arial,sans-serif" font-size="14.00">1</text>
</g>
<!-- 0&#45;&gt;1 -->
<g id="edge3" class="edge">
<title>0&#45;&gt;1</title>
<path fill="none" stroke="black" d="M31.88,-29.72C43.96,-40.72 62.23,-57.35 76.35,-70.2"/>
<polygon fill="black" stroke="black" points="74.35,-73.12 84.1,-77.26 79.06,-67.94 74.35,-73.12"/>
<text text-anchor="middle" x="58" y="-58.8" font-family="Helvetica,Arial,sans-serif" font-size="14.00">7</text>
</g>
<!-- 3 -->
<g id="node6" class="node">
<title>3</title>
<ellipse fill="none" stroke="black" cx="201" cy="-51" rx="18" ry="18"/>
<text text-anchor="middle" x="201" y="-47.3" font-family="Helvetica,Arial,sans-serif" font-size="14.00">3</text>
</g>
<!-- 0&#45;&gt;3 -->
<g id="edge4" class="edge">
<title>0&#45;&gt;3</title>
<path fill="none" stroke="black" d="M36.17,-20.32C63.56,-24.13 118.75,-32.27 165,-42 167.73,-42.57 170.56,-43.22 173.38,-43.89"/>
<polygon fill="black" stroke="black" points="172.78,-47.35 183.34,-46.39 174.49,-40.56 172.78,-47.35"/>
<text text-anchor="middle" x="98" y="-35.8" font-family="Helvetica,Arial,sans-serif" font-size="14.00">10</text>
</g>
<!-- 1&#45;&gt;4 -->
<g id="edge7" class="edge">
<title>1&#45;&gt;4</title>
<path fill="none" stroke="black" d="M115.64,-92.97C121.42,-94.17 127.96,-95.35 134,-96 214.88,-104.68 235.66,-98.33 317,-99 324.11,-99.06 325.89,-99.1 333,-99 335.55,-98.96 338.21,-98.91 340.87,-98.85"/>
<polygon fill="black" stroke="black" points="341.01,-102.35 350.91,-98.59 340.82,-95.35 341.01,-102.35"/>
<text text-anchor="middle" x="241" y="-103.8" font-family="Helvetica,Arial,sans-serif" font-size="14.00">1</text>
</g>
<!-- 1&#45;&gt;5 -->
<g id="edge6" class="edge">
<title>1&#45;&gt;5</title>
<path fill="none" stroke="black" d="M108.89,-103.65C125.11,-125.74 159.62,-165 200,-165 200,-165 200,-165 370,-165 390.86,-165 413.63,-158.61 430.5,-152.56"/>
<polygon fill="black" stroke="black" points="432.06,-155.71 440.17,-148.9 429.58,-149.17 432.06,-155.71"/>
<text text-anchor="middle" x="281" y="-168.8" font-family="Helvetica,Arial,sans-serif" font-size="14.00">21</text>
</g>
<!-- 1&#45;&gt;3 -->
<g id="edge8" class="edge">
<title>1&#45;&gt;3</title>
<path fill="none" stroke="black" d="M108.44,-74.3C114.62,-66.09 123.48,-56.63 134,-52 146.09,-46.69 160.67,-45.95 173.05,-46.75"/>
<polygon fill="black" stroke="black" points="172.94,-50.26 183.24,-47.78 173.64,-43.3 172.94,-50.26"/>
<text text-anchor="middle" x="149.5" y="-55.8" font-family="Helvetica,Arial,sans-serif" font-size="14.00">5000</text>
</g>
<!-- 3&#45;&gt;4 -->
<g id="edge10" class="edge">
<title>3&#45;&gt;4</title>
<path fill="none" stroke="black" d="M218.52,-55.68C247.36,-63.84 307.09,-80.75 341.68,-90.55"/>
<polygon fill="black" stroke="black" points="340.97,-93.98 351.54,-93.34 342.87,-87.25 340.97,-93.98"/>
<text text-anchor="middle" x="281" y="-81.8" font-family="Helvetica,Arial,sans-serif" font-size="14.00">5</text>
</g>
<!-- 3&#45;&gt;2 -->
<g id="edge9" class="edge">
<title>3&#45;&gt;2</title>
<path fill="none" stroke="black" d="M218.16,-44.99C228.62,-41.1 242.46,-35.96 254.4,-31.52"/>
<polygon fill="black" stroke="black" points="255.71,-34.77 263.86,-28 253.27,-28.21 255.71,-34.77"/>
<text text-anchor="middle" x="241" y="-40.8" font-family="Helvetica,Arial,sans-serif" font-size="14.00">2</text>
</g>
<!-- 3&#45;&gt;1 -->
<g id="edge11" class="edge">
<title>3&#45;&gt;1</title>
<path fill="none" stroke="black" d="M184.47,-58.53C178.45,-61.34 171.46,-64.45 165,-67 152.01,-72.12 137.29,-77.1 125.05,-81.03"/>
<polygon fill="black" stroke="black" points="123.93,-77.71 115.45,-84.06 126.04,-84.39 123.93,-77.71"/>
<text text-anchor="middle" x="149.5" y="-80.8" font-family="Helvetica,Arial,sans-serif" font-size="14.00">5011</text>
</g>
</g>
</svg>
